<?xml version="1.0" encoding="UTF-8"?>
<svg id="Calque_1" data-name="Calque 1" xmlns="http://www.w3.org/2000/svg" xmlns:xlink="http://www.w3.org/1999/xlink" viewBox="0 0 1024 235.12">
  <defs>
    <style>
      .cls-1 {
        fill: #4d858d;
      }

      .cls-2 {
        fill: #404040;
      }

      .cls-3 {
        fill: #4d868d;
      }

      .cls-4 {
        fill: url(#Dégradé_sans_nom_10);
      }
    </style>
    <linearGradient id="Dégradé_sans_nom_10" data-name="Dégradé sans nom 10" x1="524.87" y1="81.04" x2="725.09" y2="81.04" gradientUnits="userSpaceOnUse">
      <stop offset=".51" stop-color="#dadfe0"/>
      <stop offset=".51" stop-color="#d3d7d7"/>
      <stop offset=".51" stop-color="#c7c8c6"/>
      <stop offset=".51" stop-color="#bebeba"/>
      <stop offset=".51" stop-color="#b9b8b3"/>
      <stop offset=".51" stop-color="#b8b7b2"/>
    </linearGradient>
  </defs>
  <g>
    <g>
      <path class="cls-2" d="M79.25,112.22c-5.96,0-10.7-1.01-14.22-3.02-3.52-2.01-6.05-4.82-7.58-8.42-1.54-3.6-2.31-7.75-2.31-12.45v-3.46h17.94v1.84c0,1.66.13,3.35.4,5.07.27,1.72.84,3.17,1.72,4.33.88,1.17,2.23,1.75,4.05,1.75s3.22-.6,4.03-1.8c.81-1.2,1.3-2.74,1.5-4.61.19-1.88.29-3.83.29-5.86v-42.61h18.02v45.29c0,3.17-.36,6.18-1.07,9.04-.72,2.86-1.95,5.41-3.69,7.65-1.74,2.25-4.17,4.01-7.27,5.3-3.1,1.29-7.04,1.94-11.81,1.94Z"/>
      <path class="cls-2" d="M114.93,111.02V43h18.07v62.54l-8.14-9.32h31.67v14.8h-41.59Z"/>
      <path class="cls-2" d="M222.66,43v68.02h-18.07v-31.45l8.14,4.57h-36.45l8.14-4.29v31.18h-18.07V43h18.07v31.64l-8.14-4.38h36.45l-8.14,4.34v-31.59h18.07Z"/>
      <path class="cls-2" d="M249.97,110.93l25.16-71.34,21.35.08,25.1,71.17-19.86.17-16.6-49.18h0l-16.25,49.12-18.91-.02ZM267.66,99.4v-15.66h35.77l.72,15.66h-36.49Z"/>
      <path class="cls-2" d="M379.54,86.81c0,8.46-2.35,14.8-7.04,19.05-4.7,4.24-11.07,6.36-19.12,6.36s-14.41-2.12-19.08-6.36c-4.67-4.24-7-10.59-7-19.05v-43.81h18.07v44.27c0,3.44.57,6.07,1.72,7.88,1.15,1.82,3.24,2.72,6.28,2.72s5.15-.91,6.33-2.72c1.18-1.81,1.77-4.44,1.77-7.88v-44.27h18.07v43.81Z"/>
      <path class="cls-2" d="M437.08,56.83h-23.62l8.14-8.39v62.58h-18.02v-62.58l8.14,8.39h-23.57v-13.83h48.93v13.83Z"/>
      <path class="cls-2" d="M473.16,112.22c-4.27,0-8.31-.75-12.14-2.26-3.83-1.51-7.22-3.75-10.18-6.73-2.95-2.98-5.28-6.67-6.98-11.07-1.7-4.4-2.55-9.47-2.55-15.22s.84-10.85,2.53-15.22c1.68-4.37,3.99-8.02,6.93-10.98,2.94-2.95,6.32-5.17,10.15-6.66,3.83-1.49,7.91-2.24,12.23-2.24s8.41.75,12.25,2.24c3.85,1.49,7.24,3.71,10.18,6.66,2.94,2.95,5.24,6.61,6.91,10.98,1.67,4.37,2.5,9.44,2.5,15.22s-.85,10.82-2.55,15.22c-1.7,4.4-4.03,8.09-7,11.07s-6.37,5.23-10.2,6.73c-3.83,1.51-7.87,2.26-12.1,2.26ZM473.16,97.83c2.21,0,4.34-.62,6.42-1.87s3.78-3.39,5.1-6.43c1.32-3.04,1.99-7.24,1.99-12.59s-.67-9.57-2.01-12.57c-1.34-3-3.04-5.1-5.1-6.32s-4.19-1.82-6.4-1.82-4.3.61-6.38,1.82c-2.07,1.21-3.78,3.32-5.12,6.32-1.34,3-2.01,7.19-2.01,12.57s.67,9.59,2.01,12.61c1.34,3.03,3.05,5.16,5.12,6.41,2.08,1.25,4.2,1.87,6.38,1.87Z"/>
    </g>
    <g>
      <path class="cls-2" d="M769.45,113.38h-18.07V43.01h25.27c5.01,0,9.38,1.06,13.1,3.17,3.73,2.11,6.62,5,8.68,8.66,2.06,3.66,3.09,7.79,3.09,12.4s-1.03,8.8-3.09,12.57c-2.06,3.77-4.95,6.77-8.68,9.02-3.73,2.24-8.1,3.36-13.1,3.36h-7.2v21.18ZM769.45,86.62l-8.14-8.68h13.51c1.49,0,2.89-.39,4.18-1.17,1.3-.78,2.35-1.96,3.15-3.55.81-1.59,1.21-3.58,1.21-5.96s-.4-4.31-1.21-5.77-1.86-2.52-3.15-3.17c-1.3-.65-2.69-.98-4.18-.98h-13.51l8.14-8.68v37.98Z"/>
      <path class="cls-2" d="M804.52,113.82l25.16-71.34,21.35.08,25.1,71.17-19.86.17-16.6-49.18h0l-16.25,49.12-18.91-.02ZM826.63,101.95l5.6-15.4h14.93l5.6,15.4h-26.13Z"/>
      <path class="cls-2" d="M946.73,41.31h23.41v71.77h-20.44l.85-37.97h0l-13.43,37.97h-15.03l-13.31-38.57h0l.03,38.57h-19.92V41.31h23.41l17.72,46.34h0l16.7-46.34Z"/>
    </g>
    <g>
      <path class="cls-1" d="M665.35,18.43c1.41.27,2.72.67,3.96,1.2,1.24.52,2.4,1.16,3.5,1.89,8.4,6.2,13.41,15.73,21.11,22.48,1.54-4.37,4.62-7.54,9.49-7.21,1.36-.1,2.78-.06,4.18.1,4.2.51,8.25,2.18,9.75,5.17,4.07,8.14-.63,13.55-8.09,15.76,8.23,7.15,13.87,11.7,16.79,22.97,4.71,18.22,2.78,39.36.4,57.84-11.19,6.59-24.35,9.52-37.23,8.76-43.95-2.58-84.59-2.57-128.53,0-13.23.78-25.69-2.33-37.32-8.67l-2.24-22.6c.61-15.52-1.09-35.21,8.82-48.13,3.16-4.12,7.41-6.27,10.7-10.17-6.48-2.06-10.71-5.89-9.03-13.55,2.11-9.65,21.77-10.39,24.97-.78,4.01-4.58,8.37-10.12,12.89-14.79.75-.78,1.51-1.53,2.27-2.25,5.69-5.06,12.24-7.89,19.22-9.45,1.4-.31,2.81-.57,4.23-.79,19.03-1.6,37.9-1.99,56.88-.24,1.01.15,2.03.3,3.05.46,1.36.21,2.72.43,4.08.66,1.36.23,2.71.46,4.06.71,1.02.24,1.7.44,2.09.64ZM696.77,48.8c-1.32.75-2.47-.04-3.63-.44-8.47-6.75-12.32-16.67-21.61-22.01-1.17-.72-2.38-1.38-3.63-1.96-3.74-1.75-7.8-2.87-12.23-3.15-1.37-.22-2.74-.42-4.11-.61-18.12-1.65-36.6-2.05-54.63-.55-1.44.17-2.86.39-4.25.66-6.98,1.34-13.55,3.97-19.33,8.92-.93.81-1.76,1.57-2.41,2.19-2.84,2.76-14.29,20.09-17.96,16.92.46-13.97-22-10.44-17.37,3.06,3.89,2.25,8.23,1.79,12.23,2.77.93.23,2.3.32,2.01,1.6-6.38,4.34-16.39,10.99-19.94,18.14-5.51,11.1-5.42,33.53-4.77,46.05.13,2.45,1.11,14.31,1.58,15.33,3.07,6.62,29.36,7.62,35.98,7.41,43.2-1.39,81.19-1.52,124.42,0,9.09.32,26.82-.32,34.37-5.88,2.43-1.79,2.97-10.98,3.19-14.73.76-12.84.88-35.98-4.43-47.46-3.94-8.51-13.53-12.3-19.24-19.37-.11-2.8,12.07.28,13.33-6.4,1.03-5.46-2.02-8.19-6.11-8.96-1.02-.19-2.1-.26-3.21-.22-3.44-.1-7.29,1.88-7.68,6-.16.85-.33,1.75-.61,2.68Z"/>
      <path class="cls-4" d="M696.83,48.73c1.15-3.73.48-7.13,4.93-8.16,6.51-1.51,14.16.54,12.61,8.74-1.26,6.67-13.44,3.6-13.33,6.4,5.71,7.06,15.29,10.85,19.24,19.37,5.31,11.48,5.19,34.63,4.43,47.46-.22,3.75-.75,12.94-3.19,14.73-7.55,5.56-25.28,6.2-34.37,5.88-43.23-1.52-81.22-1.39-124.42,0-6.61.21-32.9-.78-35.98-7.41-.47-1.02-1.45-12.88-1.58-15.33-.65-12.52-.74-34.95,4.77-46.05,3.55-7.16,13.56-13.81,19.94-18.14.3-1.28-1.08-1.38-2.01-1.6-4-.98-8.35-.52-12.23-2.77-4.63-13.5,17.83-17.03,17.37-3.06,3.66,3.17,15.11-14.16,17.96-16.92,2.59-2.52,8.09-7.11,11.28-8.51,10.88-4.76,41.9-4.79,54.55-4.26,17.51.73,30.19.69,43.19,13.77,2.9,2.92,12.77,18.77,16.84,15.87ZM686.63,49.86c-6.84-9.72-14-21.3-26.34-23.18-15.24-2.32-38.77-2.05-54.4-1.23-5.22.27-16.71,1.08-21.32,2.4-7.58,2.16-14.86,14.89-20.27,20.44,40.86-.25,81.82-1.89,122.34,1.57ZM715.36,86.92c1.93-16.59-7.81-16.4-19.99-11.61l-6.69,14.82c2.16,3.03,22.32-3.01,26.68-3.22ZM561.19,90.15c.71-.66-5.88-14.1-8.27-15.31-2.58-1.3-12.11-2.38-14.69-1.47-2.56.9-5.11,11.27-2.75,13.1,2.01,1.55,24.4,4.9,25.71,3.68ZM686.53,79.66c-5.25-5.46-18.48,9.93-16.95,12.64,4.53,8.02,19.28-4.79,16.95-12.64ZM579.71,93.33c-.59-8.08-8.28-15.88-16.45-13.77,2.08,9.72,5.58,16.12,16.45,13.77ZM581.76,80.62c.82,5.21,4.32,12.09,8.87,14.69,7.79,4.45,45.13,4.17,55.42,3.36,12.6-.99,18.89-4.96,23.04-17.55-3.4-3.59-8.73-.61-12.76-.47-13.29.46-27.09.21-40.1-.09l-34.48.05ZM566.33,130.43c2.71-2.39-9.97-7.81-11.09-8.17-3.76-1.23-13.57-3.49-17.23-3.53-3.93-.04-3.75,2.38-3.6,5.72l31.92,5.98ZM683.55,130.43c6.56,1.09,12.13-1.69,18.25-2.91,3.3-.66,16.03.29,14.54-5.9-1.33-5.48-17.83-.96-21.94.38-3.76,1.22-10.19,3.79-10.84,8.42ZM670.17,119.84l-89.45,1.6c2.14,8.74,3.78,10.23,12.1,11.9,13.03,2.62,52.42,3.11,65.41.14,8.66-1.98,9.58-5.25,11.94-13.64Z"/>
      <path class="cls-2" d="M686.63,49.86c-40.52-3.47-81.48-1.82-122.34-1.57,5.4-5.55,12.69-18.28,20.27-20.44,4.61-1.32,16.1-2.12,21.32-2.4,15.64-.82,39.17-1.09,54.4,1.23,12.34,1.88,19.5,13.46,26.34,23.18Z"/>
      <path class="cls-2" d="M581.76,80.62l34.48-.05c13.01.3,26.81.55,40.1.09,4.03-.14,9.36-3.11,12.76.47-4.15,12.59-10.44,16.56-23.04,17.55-10.3.81-47.63,1.09-55.42-3.36-4.56-2.6-8.05-9.49-8.87-14.69Z"/>
      <path class="cls-2" d="M670.17,119.84c-2.37,8.4-3.29,11.67-11.94,13.64-12.99,2.97-52.37,2.48-65.41-.14-8.32-1.67-9.97-3.17-12.1-11.9l89.45-1.6Z"/>
      <path class="cls-2" d="M715.36,86.92c-4.36.21-24.52,6.25-26.68,3.22l6.69-14.82c12.18-4.79,21.92-4.99,19.99,11.61Z"/>
      <path class="cls-2" d="M561.19,90.15c-1.31,1.22-23.71-2.13-25.71-3.68-2.36-1.83.19-12.2,2.75-13.1,2.59-.91,12.12.16,14.69,1.47,2.39,1.21,8.98,14.66,8.27,15.31Z"/>
      <path class="cls-2" d="M683.55,130.43c.65-4.63,7.09-7.2,10.84-8.42,4.11-1.34,20.61-5.86,21.94-.38,1.5,6.18-11.24,5.24-14.54,5.9-6.12,1.21-11.68,3.99-18.25,2.91Z"/>
      <path class="cls-2" d="M566.33,130.43l-31.92-5.98c-.15-3.34-.34-5.76,3.6-5.72,3.67.04,13.48,2.3,17.23,3.53,1.11.36,13.8,5.78,11.09,8.17Z"/>
      <path class="cls-2" d="M686.53,79.66c2.33,7.86-12.42,20.66-16.95,12.64-1.53-2.71,11.7-18.11,16.95-12.64Z"/>
      <path class="cls-2" d="M579.71,93.33c-10.87,2.35-14.36-4.05-16.45-13.77,8.17-2.11,15.86,5.69,16.45,13.77Z"/>
    </g>
  </g>
  <g>
    <path class="cls-3" d="M53.69,179.11h22.97v6.25h-16.14v6.48h14.23v6.21h-14.23v7.45h16.14v6.25h-22.97v-32.65Z"/>
    <path class="cls-3" d="M81.69,179.11h9.19l13.38,21.7v-21.7h6.82v32.65h-7.72l-14.85-23.91v23.91h-6.82v-32.65Z"/>
    <path class="cls-3" d="M124.28,185.22h-9.28v-6.12h25.42v6.12h-9.28v26.53h-6.87v-26.53Z"/>
    <path class="cls-3" d="M144.39,179.11h14.49c7.67,0,11.73,3.95,11.73,10.44,0,4.92-2.19,8.32-6.6,9.75l7.27,12.46h-7.98l-6.56-11.68h-5.53v11.68h-6.82v-32.65ZM158.43,193.96c3.52,0,5.17-1.43,5.17-4.41,0-2.8-1.74-4.32-5.26-4.32h-7.14v8.74h7.22Z"/>
    <path class="cls-3" d="M175.96,179.11h22.97v6.25h-16.14v6.48h14.23v6.21h-14.23v7.45h16.14v6.25h-22.97v-32.65Z"/>
    <path class="cls-3" d="M211,185.22h-9.28v-6.12h25.42v6.12h-9.28v26.53h-6.87v-26.53Z"/>
    <path class="cls-3" d="M231.03,179.11h6.87v32.65h-6.87v-32.65Z"/>
    <path class="cls-3" d="M243.96,179.11h22.97v6.25h-16.14v6.48h14.23v6.21h-14.23v7.45h16.14v6.25h-22.97v-32.65Z"/>
    <path class="cls-3" d="M271.96,179.11h9.19l13.38,21.7v-21.7h6.82v32.65h-7.71l-14.85-23.91v23.91h-6.82v-32.65Z"/>
    <path class="cls-3" d="M315.66,179.11h22.97v6.25h-16.14v6.48h14.23v6.21h-14.23v7.45h16.14v6.25h-22.97v-32.65Z"/>
    <path class="cls-3" d="M350.71,185.22h-9.28v-6.12h25.42v6.12h-9.28v26.53h-6.87v-26.53Z"/>
    <path class="cls-3" d="M377.95,179.11h14.49c7.67,0,11.73,3.95,11.73,10.44,0,4.92-2.19,8.32-6.6,9.75l7.27,12.46h-7.98l-6.56-11.68h-5.53v11.68h-6.82v-32.65ZM392,193.96c3.52,0,5.17-1.43,5.17-4.41,0-2.8-1.74-4.32-5.26-4.32h-7.14v8.74h7.22Z"/>
    <path class="cls-3" d="M409.52,179.11h22.97v6.25h-16.14v6.48h14.23v6.21h-14.23v7.45h16.14v6.25h-22.97v-32.65ZM421.96,168.94h6.69l-5.71,7.36h-4.46l3.48-7.36Z"/>
    <path class="cls-3" d="M437.53,179.11h13.24c8.16,0,12.35,4.09,12.35,11.27s-4.19,11.22-12.35,11.22h-6.42v10.16h-6.82v-32.65ZM450.55,195.48c3.61,0,5.57-1.52,5.57-5.1s-1.96-5.15-5.66-5.15h-6.11v10.25h6.2Z"/>
    <path class="cls-3" d="M474.18,179.11h7.98l11.86,32.65h-7.36l-2.19-6.62h-12.75l-2.23,6.62h-7.22l11.91-32.65ZM482.56,199.34l-4.41-13.38-4.5,13.38h8.92Z"/>
    <path class="cls-3" d="M497.23,179.11h14.49c7.67,0,11.73,3.95,11.73,10.44,0,4.92-2.19,8.32-6.6,9.75l7.27,12.46h-7.98l-6.56-11.68h-5.53v11.68h-6.82v-32.65ZM511.28,193.96c3.52,0,5.17-1.43,5.17-4.41,0-2.8-1.74-4.32-5.26-4.32h-7.14v8.74h7.22Z"/>
    <path class="cls-3" d="M538.17,179.11h7.98l11.86,32.65h-7.36l-2.18-6.62h-12.75l-2.23,6.62h-7.22l11.91-32.65ZM546.55,199.34l-4.42-13.38-4.5,13.38h8.92Z"/>
    <path class="cls-3" d="M565.15,185.22h-9.28v-6.12h25.42v6.12h-9.28v26.53h-6.87v-26.53Z"/>
    <path class="cls-3" d="M585.17,179.11h6.87v32.65h-6.87v-32.65Z"/>
    <path class="cls-3" d="M596.98,195.34c0-10.81,6.15-17.06,15.74-17.06s15.65,6.25,15.65,17.06-6.06,17.24-15.65,17.24-15.74-6.44-15.74-17.24ZM621.47,195.43c0-6.85-3.21-11.08-8.74-11.08s-8.79,4.28-8.79,11.08,3.34,11.08,8.79,11.08,8.74-4.18,8.74-11.08Z"/>
    <path class="cls-3" d="M633.41,179.11h9.19l13.38,21.7v-21.7h6.82v32.65h-7.71l-14.85-23.91v23.91h-6.82v-32.65Z"/>
    <path class="cls-3" d="M686.48,179.11h7.98l11.86,32.65h-7.36l-2.18-6.62h-12.75l-2.23,6.62h-7.22l11.91-32.65ZM694.86,199.34l-4.41-13.38-4.5,13.38h8.92Z"/>
    <path class="cls-3" d="M708.06,200.07v-20.97h6.82v20.42c0,4.78,2.19,6.99,6.15,6.99s6.06-2.21,6.06-6.99v-20.42h6.87v20.97c0,8.55-5.04,12.51-12.93,12.51s-12.98-4-12.98-12.51Z"/>
    <path class="cls-3" d="M746.41,185.22h-9.28v-6.12h25.42v6.12h-9.28v26.53h-6.87v-26.53Z"/>
    <path class="cls-3" d="M765.36,195.34c0-10.81,6.15-17.06,15.74-17.06s15.65,6.25,15.65,17.06-6.06,17.24-15.65,17.24-15.74-6.44-15.74-17.24ZM789.85,195.43c0-6.85-3.21-11.08-8.74-11.08s-8.79,4.28-8.79,11.08,3.34,11.08,8.79,11.08,8.74-4.18,8.74-11.08Z"/>
    <path class="cls-3" d="M802.16,179.11h9.59l7.85,22.9,7.71-22.9h9.68v32.65h-6.82v-23.82l-7.67,23.82h-5.71l-7.8-23.5.04,23.5h-6.87v-32.65Z"/>
    <path class="cls-3" d="M842.11,195.34c0-10.81,6.15-17.06,15.74-17.06s15.65,6.25,15.65,17.06-6.06,17.24-15.65,17.24-15.74-6.44-15.74-17.24ZM866.59,195.43c0-6.85-3.21-11.08-8.74-11.08s-8.79,4.28-8.79,11.08,3.34,11.08,8.79,11.08,8.74-4.18,8.74-11.08Z"/>
    <path class="cls-3" d="M903.69,187.38c0,2.94-1.69,5.2-4.73,6.85,3.7,1.29,5.71,4.09,5.71,8.09,0,5.84-4.5,9.43-11.06,9.43h-15.07v-32.65h15.07c6.51,0,10.08,3.36,10.08,8.28ZM885.36,184.76v7.45h6.64c3.12,0,4.77-1.24,4.77-3.68s-1.47-3.77-4.46-3.77h-6.96ZM885.36,197.77v8.32h7.71c2.99,0,4.73-1.47,4.73-4.18s-1.69-4.14-4.86-4.14h-7.58Z"/>
    <path class="cls-3" d="M909.26,179.11h6.87v32.65h-6.87v-32.65Z"/>
    <path class="cls-3" d="M922.2,179.11h6.82v26.3h14.49v6.35h-21.32v-32.65Z"/>
    <path class="cls-3" d="M947.35,179.11h22.97v6.25h-16.14v6.48h14.23v6.21h-14.23v7.45h16.14v6.25h-22.97v-32.65Z"/>
  </g>
</svg>